<svg width="24" height="24" viewBox="0 0 24 24" xmlns="http://www.w3.org/2000/svg">
<path d="M6.34995 20.8L7.17495 18.95C6.94162 18.7667 6.71662 18.5875 6.49995 18.4125C6.28328 18.2375 6.07495 18.05 5.87495 17.85C5.74162 17.9 5.61245 17.9375 5.48745 17.9625C5.36245 17.9875 5.22495 18 5.07495 18C4.52495 18 4.05412 17.8042 3.66245 17.4125C3.27078 17.0208 3.07495 16.55 3.07495 16C3.07495 15.6667 3.14578 15.3625 3.28745 15.0875C3.42912 14.8125 3.62495 14.5833 3.87495 14.4C3.74162 14.0167 3.64995 13.6292 3.59995 13.2375C3.54995 12.8458 3.52495 12.4333 3.52495 12C3.52495 11.5667 3.54995 11.1542 3.59995 10.7625C3.64995 10.3708 3.74162 9.98333 3.87495 9.6C3.62495 9.41667 3.42912 9.1875 3.28745 8.9125C3.14578 8.6375 3.07495 8.33333 3.07495 8C3.07495 7.45 3.27078 6.97917 3.66245 6.5875C4.05412 6.19583 4.52495 6 5.07495 6C5.22495 6 5.36245 6.0125 5.48745 6.0375C5.61245 6.0625 5.74162 6.1 5.87495 6.15C6.42495 5.55 7.05412 5.05 7.76245 4.65C8.47078 4.25 9.22495 3.95 10.025 3.75C10.1083 3.25 10.3375 2.83333 10.7125 2.5C11.0875 2.16667 11.525 2 12.025 2C12.525 2 12.9625 2.17083 13.3375 2.5125C13.7125 2.85417 13.9416 3.26667 14.025 3.75C14.825 3.95 15.5791 4.24583 16.2875 4.6375C16.9958 5.02917 17.625 5.51667 18.175 6.1C18.3083 6.05 18.4333 6.0125 18.55 5.9875C18.6666 5.9625 18.7916 5.95 18.925 5.95C19.475 5.95 19.9458 6.14583 20.3375 6.5375C20.7291 6.92917 20.925 7.4 20.925 7.95C20.925 8.28333 20.8583 8.57917 20.725 8.8375C20.5916 9.09583 20.4083 9.31667 20.175 9.5C20.3083 9.9 20.4 10.3083 20.45 10.725C20.5 11.1417 20.525 11.5667 20.525 12C20.525 12.4333 20.5 12.8542 20.45 13.2625C20.4 13.6708 20.3083 14.0667 20.175 14.45C20.4083 14.6333 20.5916 14.8542 20.725 15.1125C20.8583 15.3708 20.925 15.6667 20.925 16C20.925 16.55 20.7291 17.0208 20.3375 17.4125C19.9458 17.8042 19.475 18 18.925 18C18.7916 18 18.6666 17.9875 18.55 17.9625C18.4333 17.9375 18.3083 17.9 18.175 17.85C17.975 18.05 17.7708 18.2458 17.5625 18.4375C17.3541 18.6292 17.125 18.8167 16.875 19L17.65 20.825C17.7833 21.1083 17.7625 21.375 17.5875 21.625C17.4125 21.875 17.175 22 16.875 22C16.6916 22 16.5333 21.95 16.4 21.85C16.2666 21.75 16.1666 21.625 16.1 21.475L15.375 19.8C15.1416 19.9 14.9166 19.9875 14.7 20.0625C14.4833 20.1375 14.2583 20.2 14.025 20.25C13.9416 20.7333 13.7125 21.1458 13.3375 21.4875C12.9625 21.8292 12.525 22 12.025 22C11.525 22 11.0875 21.8333 10.7125 21.5C10.3375 21.1667 10.1083 20.75 10.025 20.25C9.77495 20.2 9.53745 20.1375 9.31245 20.0625C9.08745 19.9875 8.85828 19.9 8.62495 19.8L7.89995 21.5C7.83328 21.65 7.72912 21.7708 7.58745 21.8625C7.44578 21.9542 7.29162 22 7.12495 22C6.82495 22 6.58745 21.8708 6.41245 21.6125C6.23745 21.3542 6.21662 21.0833 6.34995 20.8ZM7.72495 17.65L9.27495 14.15C9.04162 13.85 8.85828 13.5167 8.72495 13.15C8.59162 12.7833 8.52495 12.4 8.52495 12C8.52495 11.05 8.87078 10.2292 9.56245 9.5375C10.2541 8.84583 11.075 8.5 12.025 8.5C12.975 8.5 13.7958 8.84583 14.4875 9.5375C15.1791 10.2292 15.525 11.05 15.525 12C15.525 12.4 15.4541 12.7917 15.3125 13.175C15.1708 13.5583 14.975 13.9 14.725 14.2L16.275 17.65C16.425 17.5167 16.5708 17.3958 16.7125 17.2875C16.8541 17.1792 16.9916 17.05 17.125 16.9C17.0416 16.7667 16.9875 16.6208 16.9625 16.4625C16.9375 16.3042 16.925 16.15 16.925 16C16.925 15.4667 17.1083 15.0083 17.475 14.625C17.8416 14.2417 18.2916 14.0333 18.825 14C18.925 13.6667 19 13.3375 19.05 13.0125C19.1 12.6875 19.125 12.35 19.125 12C19.125 11.65 19.1 11.3042 19.05 10.9625C19 10.6208 18.925 10.2833 18.825 9.95C18.2916 9.91667 17.8416 9.70833 17.475 9.325C17.1083 8.94167 16.925 8.48333 16.925 7.95C16.925 7.8 16.9458 7.65417 16.9875 7.5125C17.0291 7.37083 17.075 7.23333 17.125 7.1C16.6416 6.61667 16.1083 6.20833 15.525 5.875C14.9416 5.54167 14.325 5.28333 13.675 5.1C13.4916 5.38333 13.2583 5.60417 12.975 5.7625C12.6916 5.92083 12.375 6 12.025 6C11.675 6 11.3583 5.92083 11.075 5.7625C10.7916 5.60417 10.5583 5.38333 10.375 5.1C9.69162 5.28333 9.05828 5.54583 8.47495 5.8875C7.89162 6.22917 7.35828 6.65 6.87495 7.15C6.92495 7.28333 6.97078 7.42083 7.01245 7.5625C7.05412 7.70417 7.07495 7.85 7.07495 8C7.07495 8.53333 6.89995 8.9875 6.54995 9.3625C6.19995 9.7375 5.75828 9.95 5.22495 10C5.12495 10.3333 5.04995 10.6625 4.99995 10.9875C4.94995 11.3125 4.92495 11.65 4.92495 12C4.92495 12.35 4.94995 12.6875 4.99995 13.0125C5.04995 13.3375 5.12495 13.6667 5.22495 14C5.75828 14.0333 6.19995 14.2417 6.54995 14.625C6.89995 15.0083 7.07495 15.4667 7.07495 16C7.07495 16.15 7.06245 16.2958 7.03745 16.4375C7.01245 16.5792 6.95828 16.7167 6.87495 16.85C7.00828 17 7.14578 17.1375 7.28745 17.2625C7.42912 17.3875 7.57495 17.5167 7.72495 17.65ZM9.22495 18.5C9.40828 18.5833 9.59578 18.6583 9.78745 18.725C9.97912 18.7917 10.175 18.85 10.375 18.9C10.5583 18.6167 10.7916 18.3958 11.075 18.2375C11.3583 18.0792 11.675 18 12.025 18C12.375 18 12.6916 18.0792 12.975 18.2375C13.2583 18.3958 13.4916 18.6167 13.675 18.9C13.875 18.85 14.0625 18.7917 14.2375 18.725C14.4125 18.6583 14.5916 18.5833 14.775 18.5L13.325 15.25C13.125 15.3333 12.9166 15.3958 12.7 15.4375C12.4833 15.4792 12.2583 15.5 12.025 15.5C11.775 15.5 11.5375 15.475 11.3125 15.425C11.0875 15.375 10.875 15.3 10.675 15.2L9.22495 18.5ZM12.025 13.5C12.425 13.5 12.775 13.3583 13.075 13.075C13.375 12.7917 13.525 12.4333 13.525 12C13.525 11.6 13.375 11.25 13.075 10.95C12.775 10.65 12.425 10.5 12.025 10.5C11.5916 10.5 11.2333 10.65 10.95 10.95C10.6666 11.25 10.525 11.6 10.525 12C10.525 12.4333 10.6666 12.7917 10.95 13.075C11.2333 13.3583 11.5916 13.5 12.025 13.5Z" fill="#031717"/>
</svg>
