<svg width="24" height="24" viewBox="0 0 24 24" fill="none" xmlns="http://www.w3.org/2000/svg">
<path d="M12 16.8998L9.60005 19.2998C9.41672 19.4831 9.18338 19.5748 8.90005 19.5748C8.61672 19.5748 8.38338 19.4831 8.20005 19.2998C8.01672 19.1165 7.92505 18.8831 7.92505 18.5998C7.92505 18.3165 8.01672 18.0831 8.20005 17.8998L11.3 14.7998C11.4 14.6998 11.5084 14.629 11.625 14.5873C11.7417 14.5456 11.8667 14.5248 12 14.5248C12.1334 14.5248 12.2584 14.5456 12.375 14.5873C12.4917 14.629 12.6 14.6998 12.7 14.7998L15.8 17.8998C15.9834 18.0831 16.075 18.3165 16.075 18.5998C16.075 18.8831 15.9834 19.1165 15.8 19.2998C15.6167 19.4831 15.3834 19.5748 15.1 19.5748C14.8167 19.5748 14.5834 19.4831 14.4 19.2998L12 16.8998ZM12 7.0998L14.4 4.6998C14.5834 4.51647 14.8167 4.4248 15.1 4.4248C15.3834 4.4248 15.6167 4.51647 15.8 4.6998C15.9834 4.88314 16.075 5.11647 16.075 5.3998C16.075 5.68314 15.9834 5.91647 15.8 6.0998L12.7 9.1998C12.6 9.2998 12.4917 9.37064 12.375 9.4123C12.2584 9.45397 12.1334 9.4748 12 9.4748C11.8667 9.4748 11.7417 9.45397 11.625 9.4123C11.5084 9.37064 11.4 9.2998 11.3 9.1998L8.20005 6.0998C8.01672 5.91647 7.92505 5.68314 7.92505 5.3998C7.92505 5.11647 8.01672 4.88314 8.20005 4.6998C8.38338 4.51647 8.61672 4.4248 8.90005 4.4248C9.18338 4.4248 9.41672 4.51647 9.60005 4.6998L12 7.0998Z" fill="#031717"/>
</svg>
