<svg width="24" height="24" viewBox="0 0 24 24" fill="none" xmlns="http://www.w3.org/2000/svg">
<path d="M12 18.0999L14.325 15.7749C14.525 15.5749 14.7667 15.4749 15.05 15.4749C15.3334 15.4749 15.575 15.5749 15.775 15.7749C15.975 15.9749 16.075 16.2166 16.075 16.4999C16.075 16.7832 15.975 17.0249 15.775 17.2249L12.7 20.2999C12.6 20.3999 12.4917 20.4707 12.375 20.5124C12.2584 20.5541 12.1334 20.5749 12 20.5749C11.8667 20.5749 11.7417 20.5541 11.625 20.5124C11.5084 20.4707 11.4 20.3999 11.3 20.2999L8.22505 17.2249C8.02505 17.0249 7.92505 16.7832 7.92505 16.4999C7.92505 16.2166 8.02505 15.9749 8.22505 15.7749C8.42505 15.5749 8.66672 15.4749 8.95005 15.4749C9.23338 15.4749 9.47505 15.5749 9.67505 15.7749L12 18.0999ZM12 5.9999L9.67505 8.3249C9.47505 8.5249 9.23338 8.6249 8.95005 8.6249C8.66672 8.6249 8.42505 8.5249 8.22505 8.3249C8.02505 8.1249 7.92505 7.88324 7.92505 7.5999C7.92505 7.31657 8.02505 7.0749 8.22505 6.8749L11.3 3.7999C11.4 3.6999 11.5084 3.62907 11.625 3.5874C11.7417 3.54574 11.8667 3.5249 12 3.5249C12.1334 3.5249 12.2584 3.54574 12.375 3.5874C12.4917 3.62907 12.6 3.6999 12.7 3.7999L15.775 6.8749C15.975 7.0749 16.075 7.31657 16.075 7.5999C16.075 7.88324 15.975 8.1249 15.775 8.3249C15.575 8.5249 15.3334 8.6249 15.05 8.6249C14.7667 8.6249 14.525 8.5249 14.325 8.3249L12 5.9999Z" fill="#031717"/>
</svg>
