<svg width="24" height="24" viewBox="0 0 24 24" fill="none" xmlns="http://www.w3.org/2000/svg">
<path d="M4.75 22.0002C4.08333 22.0002 3.55 21.7294 3.15 21.1877C2.75 20.646 2.61667 20.0335 2.75 19.3502C2.93333 18.5002 3.05833 17.6502 3.125 16.8002C3.19167 15.9502 3.23333 15.1002 3.25 14.2502C2.56667 13.9835 2.02083 13.5585 1.6125 12.9752C1.20417 12.3919 1 11.7335 1 11.0002V10.3002C1 9.91686 1.1125 9.56686 1.3375 9.2502C1.5625 8.93353 1.85833 8.7002 2.225 8.5502C3.80833 7.91686 5.3 7.13353 6.7 6.2002C8.1 5.26686 9.45 4.2502 10.75 3.1502C10.9333 3.0002 11.1292 2.8877 11.3375 2.8127C11.5458 2.7377 11.7667 2.7002 12 2.7002C12.2333 2.7002 12.4542 2.7377 12.6625 2.8127C12.8708 2.8877 13.0667 3.0002 13.25 3.1502C14.55 4.2502 15.9 5.26686 17.3 6.2002C18.7 7.13353 20.1917 7.91686 21.775 8.5502C22.1417 8.7002 22.4375 8.93353 22.6625 9.2502C22.8875 9.56686 23 9.91686 23 10.3002V11.0002C23 11.7335 22.7958 12.3919 22.3875 12.9752C21.9792 13.5585 21.4333 13.9835 20.75 14.2502C20.7667 15.1002 20.8083 15.9502 20.875 16.8002C20.9417 17.6502 21.0667 18.5002 21.25 19.3502C21.3833 20.0335 21.25 20.646 20.85 21.1877C20.45 21.7294 19.9167 22.0002 19.25 22.0002H4.75ZM5.9 9.0002H18.1C17 8.38353 15.9458 7.71686 14.9375 7.0002C13.9292 6.28353 12.95 5.51686 12 4.7002C11.05 5.51686 10.0708 6.28353 9.0625 7.0002C8.05417 7.71686 7 8.38353 5.9 9.0002ZM14.5 12.5002C14.9167 12.5002 15.2708 12.3544 15.5625 12.0627C15.8542 11.771 16 11.4169 16 11.0002H13C13 11.4169 13.1458 11.771 13.4375 12.0627C13.7292 12.3544 14.0833 12.5002 14.5 12.5002ZM9.5 12.5002C9.91667 12.5002 10.2708 12.3544 10.5625 12.0627C10.8542 11.771 11 11.4169 11 11.0002H8C8 11.4169 8.14583 11.771 8.4375 12.0627C8.72917 12.3544 9.08333 12.5002 9.5 12.5002ZM4.5 12.5002C4.91667 12.5002 5.27083 12.3544 5.5625 12.0627C5.85417 11.771 6 11.4169 6 11.0002H3C3 11.4169 3.14583 11.771 3.4375 12.0627C3.72917 12.3544 4.08333 12.5002 4.5 12.5002ZM4.65 20.0002H7.325C7.475 19.0002 7.59167 18.0085 7.675 17.0252C7.75833 16.0419 7.825 15.0502 7.875 14.0502C7.70833 13.9669 7.55417 13.8794 7.4125 13.7877C7.27083 13.696 7.13333 13.5835 7 13.4502C6.76667 13.6835 6.5 13.8835 6.2 14.0502C5.9 14.2169 5.58333 14.3419 5.25 14.4252C5.21667 15.3752 5.15833 16.3127 5.075 17.2377C4.99167 18.1627 4.85 19.0835 4.65 20.0002ZM9.35 20.0002H14.65C14.5167 19.0835 14.4125 18.1669 14.3375 17.2502C14.2625 16.3335 14.2 15.4085 14.15 14.4752C13.7333 14.4419 13.3417 14.3377 12.975 14.1627C12.6083 13.9877 12.2833 13.7585 12 13.4752C11.7167 13.7585 11.3917 13.9877 11.025 14.1627C10.6583 14.3377 10.2667 14.4419 9.85 14.4752C9.8 15.4085 9.7375 16.3335 9.6625 17.2502C9.5875 18.1669 9.48333 19.0835 9.35 20.0002ZM16.675 20.0002H19.35C19.15 19.0835 19.0083 18.1627 18.925 17.2377C18.8417 16.3127 18.7833 15.3752 18.75 14.4252C18.4167 14.3419 18.1 14.221 17.8 14.0627C17.5 13.9044 17.2333 13.7002 17 13.4502C16.8667 13.5835 16.7292 13.696 16.5875 13.7877C16.4458 13.8794 16.2917 13.9669 16.125 14.0502C16.175 15.0502 16.2458 16.0419 16.3375 17.0252C16.4292 18.0085 16.5417 19.0002 16.675 20.0002ZM19.5 12.5002C19.9167 12.5002 20.2708 12.3544 20.5625 12.0627C20.8542 11.771 21 11.4169 21 11.0002H18C18 11.4169 18.1458 11.771 18.4375 12.0627C18.7292 12.3544 19.0833 12.5002 19.5 12.5002Z" fill="#031717"/>
</svg>
