<svg width="24" height="24" viewBox="0 0 24 24" fill="none" xmlns="http://www.w3.org/2000/svg">
<path d="M17.8499 19.9501L13.4249 15.5251L15.5249 13.4251L19.9499 17.8501C20.2333 18.1334 20.3749 18.4834 20.3749 18.9001C20.3749 19.3168 20.2333 19.6668 19.9499 19.9501C19.6666 20.2334 19.3166 20.3751 18.8999 20.3751C18.4833 20.3751 18.1333 20.2334 17.8499 19.9501ZM4.04994 19.9501C3.76661 19.6668 3.62494 19.3168 3.62494 18.9001C3.62494 18.4834 3.76661 18.1334 4.04994 17.8501L9.89994 12.0001L8.19994 10.3001C8.01661 10.4834 7.78328 10.5751 7.49994 10.5751C7.21661 10.5751 6.98328 10.4834 6.79994 10.3001L6.22494 9.7251V11.9751C6.22494 12.2084 6.12494 12.3668 5.92494 12.4501C5.72494 12.5334 5.54161 12.4918 5.37494 12.3251L2.64994 9.6001C2.48328 9.43343 2.44161 9.2501 2.52494 9.0501C2.60828 8.8501 2.76661 8.7501 2.99994 8.7501H5.24994L4.69994 8.2001C4.49994 8.0001 4.39994 7.76676 4.39994 7.5001C4.39994 7.23343 4.49994 7.0001 4.69994 6.8001L7.54994 3.9501C7.88328 3.61676 8.24161 3.3751 8.62494 3.2251C9.00828 3.0751 9.39994 3.0001 9.79994 3.0001C10.1333 3.0001 10.4458 3.0501 10.7374 3.1501C11.0291 3.2501 11.3166 3.4001 11.5999 3.6001C11.7333 3.68343 11.8041 3.8001 11.8124 3.9501C11.8208 4.1001 11.7666 4.23343 11.6499 4.3501L9.74994 6.2501L10.2999 6.8001C10.4833 6.98343 10.5749 7.21676 10.5749 7.5001C10.5749 7.78343 10.4833 8.01676 10.2999 8.2001L11.9999 9.9001L14.2499 7.6501C14.1833 7.46676 14.1291 7.2751 14.0874 7.0751C14.0458 6.8751 14.0249 6.6751 14.0249 6.4751C14.0249 5.49176 14.3624 4.6626 15.0374 3.9876C15.7124 3.3126 16.5416 2.9751 17.5249 2.9751C17.6583 2.9751 17.7833 2.97926 17.8999 2.9876C18.0166 2.99593 18.1333 3.01676 18.2499 3.0501C18.3999 3.1001 18.4958 3.20426 18.5374 3.3626C18.5791 3.52093 18.5416 3.65843 18.4249 3.7751L16.7999 5.4001C16.6999 5.5001 16.6499 5.61676 16.6499 5.7501C16.6499 5.88343 16.6999 6.0001 16.7999 6.1001L17.8999 7.2001C17.9999 7.3001 18.1166 7.3501 18.2499 7.3501C18.3833 7.3501 18.4999 7.3001 18.5999 7.2001L20.2249 5.5751C20.3416 5.45843 20.4791 5.41676 20.6374 5.4501C20.7958 5.48343 20.8999 5.58343 20.9499 5.7501C20.9833 5.86676 21.0041 5.98343 21.0124 6.1001C21.0208 6.21676 21.0249 6.34176 21.0249 6.4751C21.0249 7.45843 20.6874 8.2876 20.0124 8.9626C19.3374 9.6376 18.5083 9.9751 17.5249 9.9751C17.3249 9.9751 17.1249 9.95843 16.9249 9.9251C16.7249 9.89176 16.5333 9.83343 16.3499 9.7501L6.14994 19.9501C5.86661 20.2334 5.51661 20.3751 5.09994 20.3751C4.68328 20.3751 4.33328 20.2334 4.04994 19.9501Z" fill="#031717"/>
</svg>
