<svg width="24" height="24" viewBox="0 0 24 24" fill="none" xmlns="http://www.w3.org/2000/svg">
<path d="M7 9V3C7 2.71667 7.09583 2.47917 7.2875 2.2875C7.47917 2.09583 7.71667 2 8 2C8.28333 2 8.52083 2.09583 8.7125 2.2875C8.90417 2.47917 9 2.71667 9 3V9H10V3C10 2.71667 10.0958 2.47917 10.2875 2.2875C10.4792 2.09583 10.7167 2 11 2C11.2833 2 11.5208 2.09583 11.7125 2.2875C11.9042 2.47917 12 2.71667 12 3V9C12 9.93333 11.7125 10.75 11.1375 11.45C10.5625 12.15 9.85 12.6167 9 12.85V21C9 21.2833 8.90417 21.5208 8.7125 21.7125C8.52083 21.9042 8.28333 22 8 22C7.71667 22 7.47917 21.9042 7.2875 21.7125C7.09583 21.5208 7 21.2833 7 21V12.85C6.15 12.6167 5.4375 12.15 4.8625 11.45C4.2875 10.75 4 9.93333 4 9V3C4 2.71667 4.09583 2.47917 4.2875 2.2875C4.47917 2.09583 4.71667 2 5 2C5.28333 2 5.52083 2.09583 5.7125 2.2875C5.90417 2.47917 6 2.71667 6 3V9H7ZM17 14H15C14.7167 14 14.4792 13.9042 14.2875 13.7125C14.0958 13.5208 14 13.2833 14 13V7C14 5.83333 14.4292 4.70833 15.2875 3.625C16.1458 2.54167 17.0333 2 17.95 2C18.25 2 18.5 2.11667 18.7 2.35C18.9 2.58333 19 2.85833 19 3.175V21C19 21.2833 18.9042 21.5208 18.7125 21.7125C18.5208 21.9042 18.2833 22 18 22C17.7167 22 17.4792 21.9042 17.2875 21.7125C17.0958 21.5208 17 21.2833 17 21V14Z" fill="#031717"/>
</svg>
