<svg width="24" height="24" viewBox="0 0 24 24" fill="none" xmlns="http://www.w3.org/2000/svg">
<path d="M6 14H4C3.71667 14 3.47917 13.9042 3.2875 13.7125C3.09583 13.5208 3 13.2833 3 13C3 12.7167 3.09583 12.4792 3.2875 12.2875C3.47917 12.0958 3.71667 12 4 12H6V10C6 9.71667 6.09583 9.47917 6.2875 9.2875C6.47917 9.09583 6.71667 9 7 9C7.28333 9 7.52083 9.09583 7.7125 9.2875C7.90417 9.47917 8 9.71667 8 10V12H10C10.2833 12 10.5208 12.0958 10.7125 12.2875C10.9042 12.4792 11 12.7167 11 13C11 13.2833 10.9042 13.5208 10.7125 13.7125C10.5208 13.9042 10.2833 14 10 14H8V16C8 16.2833 7.90417 16.5208 7.7125 16.7125C7.52083 16.9042 7.28333 17 7 17C6.71667 17 6.47917 16.9042 6.2875 16.7125C6.09583 16.5208 6 16.2833 6 16V14ZM15.75 8.05L14.325 9.075C14.0917 9.25833 13.8292 9.32083 13.5375 9.2625C13.2458 9.20417 13.0167 9.05 12.85 8.8C12.7 8.56667 12.65 8.3125 12.7 8.0375C12.75 7.7625 12.8917 7.54167 13.125 7.375L16.2 5.15C16.2667 5.1 16.3375 5.0625 16.4125 5.0375C16.4875 5.0125 16.5667 5 16.65 5H17.2C17.4333 5 17.625 5.075 17.775 5.225C17.925 5.375 18 5.56667 18 5.8V17.875C18 18.1917 17.8917 18.4583 17.675 18.675C17.4583 18.8917 17.1917 19 16.875 19C16.5583 19 16.2917 18.8917 16.075 18.675C15.8583 18.4583 15.75 18.1917 15.75 17.875V8.05Z" fill="#031717"/>
</svg>
