<svg width="24" height="24" viewBox="0 0 24 24" fill="none" xmlns="http://www.w3.org/2000/svg">
<path d="M1.75004 13.4001C1.53337 13.2501 1.4042 13.046 1.36254 12.7876C1.32087 12.5293 1.3667 12.2835 1.50004 12.0501L4.55004 7.15013C4.9167 6.56679 5.43754 6.25429 6.11254 6.21263C6.78754 6.17096 7.3417 6.40846 7.77504 6.92512L9.00004 8.35012L11.375 4.50012C11.7584 3.86679 12.3125 3.54596 13.0375 3.53762C13.7625 3.52929 14.325 3.83346 14.725 4.45012L16 6.35012L18.8 1.90012C18.95 1.65012 19.1709 1.49596 19.4625 1.43762C19.7542 1.37929 20.0167 1.44179 20.25 1.62512C20.4667 1.77512 20.5959 1.97929 20.6375 2.23762C20.6792 2.49596 20.6334 2.74179 20.5 2.97512L17.7 7.42512C17.3167 8.04179 16.7625 8.35012 16.0375 8.35012C15.3125 8.35012 14.75 8.05012 14.35 7.45012L13.075 5.55012L10.7 9.40012C10.35 9.98346 9.83754 10.3001 9.16254 10.3501C8.48754 10.4001 7.93337 10.1668 7.50004 9.65012L6.25004 8.20012L3.20004 13.1251C3.05004 13.3751 2.8292 13.5293 2.53754 13.5876C2.24587 13.646 1.98337 13.5835 1.75004 13.4001ZM14.5 18.0001C15.2 18.0001 15.7917 17.7585 16.275 17.2751C16.7584 16.7918 17 16.2001 17 15.5001C17 14.8001 16.7584 14.2085 16.275 13.7251C15.7917 13.2418 15.2 13.0001 14.5 13.0001C13.8 13.0001 13.2084 13.2418 12.725 13.7251C12.2417 14.2085 12 14.8001 12 15.5001C12 16.2001 12.2417 16.7918 12.725 17.2751C13.2084 17.7585 13.8 18.0001 14.5 18.0001ZM14.5 20.0001C13.25 20.0001 12.1875 19.5626 11.3125 18.6876C10.4375 17.8126 10 16.7501 10 15.5001C10 14.2501 10.4375 13.1876 11.3125 12.3126C12.1875 11.4376 13.25 11.0001 14.5 11.0001C15.75 11.0001 16.8125 11.4376 17.6875 12.3126C18.5625 13.1876 19 14.2501 19 15.5001C19 15.9335 18.9417 16.3543 18.825 16.7626C18.7084 17.171 18.5334 17.5501 18.3 17.9001L20.3 19.9001C20.4834 20.0835 20.575 20.3168 20.575 20.6001C20.575 20.8835 20.4834 21.1168 20.3 21.3001C20.1167 21.4835 19.8834 21.5751 19.6 21.5751C19.3167 21.5751 19.0834 21.4835 18.9 21.3001L16.9 19.3001C16.55 19.5335 16.1709 19.7085 15.7625 19.8251C15.3542 19.9418 14.9334 20.0001 14.5 20.0001Z" fill="#031717"/>
</svg>
