<svg width="24" height="24" viewBox="0 0 24 24" fill="none" xmlns="http://www.w3.org/2000/svg">
<path d="M7 23C6.45 23 5.97917 22.8042 5.5875 22.4125C5.19583 22.0208 5 21.55 5 21V3C5 2.45 5.19583 1.97917 5.5875 1.5875C5.97917 1.19583 6.45 1 7 1H17C17.55 1 18.0208 1.19583 18.4125 1.5875C18.8042 1.97917 19 2.45 19 3V6.1C19.3 6.21667 19.5417 6.4 19.725 6.65C19.9083 6.9 20 7.18333 20 7.5V9.5C20 9.81667 19.9083 10.1 19.725 10.35C19.5417 10.6 19.3 10.7833 19 10.9V21C19 21.55 18.8042 22.0208 18.4125 22.4125C18.0208 22.8042 17.55 23 17 23H7ZM7 21H17V3H7V21ZM9 16H15C15.2833 16 15.5208 15.9042 15.7125 15.7125C15.9042 15.5208 16 15.2833 16 15V13.325C16 13.2417 15.9667 13.1667 15.9 13.1C15.8333 13.0333 15.7583 12.9833 15.675 12.95C15.475 12.8833 15.3125 12.7667 15.1875 12.6C15.0625 12.4333 15 12.2333 15 12C15 11.7667 15.0625 11.5667 15.1875 11.4C15.3125 11.2333 15.475 11.1167 15.675 11.05C15.775 11.0167 15.8542 10.9667 15.9125 10.9C15.9708 10.8333 16 10.7583 16 10.675V9C16 8.71667 15.9042 8.47917 15.7125 8.2875C15.5208 8.09583 15.2833 8 15 8H9C8.71667 8 8.47917 8.09583 8.2875 8.2875C8.09583 8.47917 8 8.71667 8 9V10.675C8 10.7583 8.03333 10.8333 8.1 10.9C8.16667 10.9667 8.24167 11.0167 8.325 11.05C8.525 11.1167 8.6875 11.2333 8.8125 11.4C8.9375 11.5667 9 11.7667 9 12C9 12.2333 8.9375 12.4333 8.8125 12.6C8.6875 12.7667 8.525 12.8833 8.325 12.95C8.225 12.9833 8.14583 13.0333 8.0875 13.1C8.02917 13.1667 8 13.2417 8 13.325V15C8 15.2833 8.09583 15.5208 8.2875 15.7125C8.47917 15.9042 8.71667 16 9 16ZM12 14.5C11.8667 14.5 11.75 14.45 11.65 14.35C11.55 14.25 11.5 14.1333 11.5 14C11.5 13.8667 11.55 13.75 11.65 13.65C11.75 13.55 11.8667 13.5 12 13.5C12.1333 13.5 12.25 13.55 12.35 13.65C12.45 13.75 12.5 13.8667 12.5 14C12.5 14.1333 12.45 14.25 12.35 14.35C12.25 14.45 12.1333 14.5 12 14.5ZM12 12.5C11.8667 12.5 11.75 12.45 11.65 12.35C11.55 12.25 11.5 12.1333 11.5 12C11.5 11.8667 11.55 11.75 11.65 11.65C11.75 11.55 11.8667 11.5 12 11.5C12.1333 11.5 12.25 11.55 12.35 11.65C12.45 11.75 12.5 11.8667 12.5 12C12.5 12.1333 12.45 12.25 12.35 12.35C12.25 12.45 12.1333 12.5 12 12.5ZM12 10.5C11.8667 10.5 11.75 10.45 11.65 10.35C11.55 10.25 11.5 10.1333 11.5 10C11.5 9.86667 11.55 9.75 11.65 9.65C11.75 9.55 11.8667 9.5 12 9.5C12.1333 9.5 12.25 9.55 12.35 9.65C12.45 9.75 12.5 9.86667 12.5 10C12.5 10.1333 12.45 10.25 12.35 10.35C12.25 10.45 12.1333 10.5 12 10.5Z" fill="#031717"/>
</svg>
