<svg width="24" height="24" viewBox="0 0 24 24" fill="none" xmlns="http://www.w3.org/2000/svg">
<path d="M20 10C19.7167 10 19.4792 9.90417 19.2875 9.7125C19.0958 9.52083 19 9.28333 19 9C19 8.71667 19.0958 8.47917 19.2875 8.2875C19.4792 8.09583 19.7167 8 20 8C20.2833 8 20.5208 8.09583 20.7125 8.2875C20.9042 8.47917 21 8.71667 21 9C21 9.28333 20.9042 9.52083 20.7125 9.7125C20.5208 9.90417 20.2833 10 20 10ZM10 18.4L8.075 20.325C7.89167 20.5083 7.6625 20.6 7.3875 20.6C7.1125 20.6 6.88333 20.5 6.7 20.3C6.5 20.1167 6.4 19.8875 6.4 19.6125C6.4 19.3375 6.5 19.1 6.7 18.9L10 15.6V14H8.4L5.075 17.325C4.89167 17.5083 4.6625 17.6 4.3875 17.6C4.1125 17.6 3.88333 17.5 3.7 17.3C3.5 17.1167 3.4 16.8875 3.4 16.6125C3.4 16.3375 3.5 16.1 3.7 15.9L5.6 14H2.975C2.69167 14 2.45833 13.9042 2.275 13.7125C2.09167 13.5208 2 13.2833 2 13C2 12.7167 2.09583 12.4792 2.2875 12.2875C2.47917 12.0958 2.71667 12 3 12H5.6L3.675 10.1C3.49167 9.91667 3.4 9.6875 3.4 9.4125C3.4 9.1375 3.5 8.9 3.7 8.7C3.88333 8.51667 4.1125 8.425 4.3875 8.425C4.6625 8.425 4.9 8.51667 5.1 8.7L8.4 12H10V10.4L6.675 7.1C6.49167 6.91667 6.4 6.6875 6.4 6.4125C6.4 6.1375 6.5 5.9 6.7 5.7C6.88333 5.51667 7.1125 5.425 7.3875 5.425C7.6625 5.425 7.9 5.51667 8.1 5.7L10 7.6V5C10 4.71667 10.0958 4.47917 10.2875 4.2875C10.4792 4.09583 10.7167 4 11 4C11.2833 4 11.5208 4.09583 11.7125 4.2875C11.9042 4.47917 12 4.71667 12 5V7.6L13.9 5.7C14.0833 5.51667 14.3125 5.425 14.5875 5.425C14.8625 5.425 15.1 5.51667 15.3 5.7C15.4833 5.9 15.575 6.1375 15.575 6.4125C15.575 6.6875 15.4833 6.91667 15.3 7.1L12 10.4V12H19C19.2833 12 19.5208 12.0958 19.7125 12.2875C19.9042 12.4792 20 12.7167 20 13C20 13.2833 19.9042 13.5208 19.7125 13.7125C19.5208 13.9042 19.2833 14 19 14H16.4L18.3 15.925C18.4833 16.1083 18.575 16.3375 18.575 16.6125C18.575 16.8875 18.4833 17.1167 18.3 17.3C18.1 17.5 17.8625 17.6 17.5875 17.6C17.3125 17.6 17.0833 17.5 16.9 17.3L13.6 14H12V15.6L15.3 18.925C15.4833 19.1083 15.575 19.3375 15.575 19.6125C15.575 19.8875 15.4833 20.1167 15.3 20.3C15.1 20.5 14.8625 20.6 14.5875 20.6C14.3125 20.6 14.0833 20.5 13.9 20.3L12 18.4V21.025C12 21.3083 11.9042 21.5417 11.7125 21.725C11.5208 21.9083 11.2833 22 11 22C10.7167 22 10.4792 21.9042 10.2875 21.7125C10.0958 21.5208 10 21.2833 10 21V18.4ZM20 7C19.7167 7 19.4792 6.90417 19.2875 6.7125C19.0958 6.52083 19 6.28333 19 6V3C19 2.71667 19.0958 2.47917 19.2875 2.2875C19.4792 2.09583 19.7167 2 20 2C20.2833 2 20.5208 2.09583 20.7125 2.2875C20.9042 2.47917 21 2.71667 21 3V6.025C21 6.30833 20.9042 6.54167 20.7125 6.725C20.5208 6.90833 20.2833 7 20 7Z" fill="#0A2629"/>
</svg>
